<svg width="191" height="190" viewBox="0 0 191 190" fill="none" xmlns="http://www.w3.org/2000/svg">
<path d="M64.014 21.5C71.1884 17.3579 82.8204 17.3579 89.9948 21.5L185.258 76.5C192.432 80.6421 192.432 87.3579 185.258 91.5L127.234 125C120.059 129.142 108.427 129.142 101.253 125L5.99031 70C-1.18408 65.8579 -1.18408 59.1421 5.99031 55L64.014 21.5Z" fill="#64A479"/>
<rect width="110" height="40" transform="matrix(0.866025 0.5 0 1 5.99023 70)" fill="#528A65"/>
<rect width="67" height="40" transform="matrix(0.866025 -0.5 0 1 127.234 125)" fill="#4A4A4A"/>
<path d="M0.609375 62.5C0.609375 65.4289 2.66564 68.0806 5.99017 70V110C2.66564 108.081 0.609375 105.429 0.609375 102.5V62.5Z" fill="#528A65"/>
<path d="M101.253 125C108.427 129.142 120.059 129.142 127.234 125V165C120.059 169.142 108.427 169.142 101.253 165V125Z" fill="#4A4A4A"/>
<path d="M190.639 84C190.639 86.9289 188.582 89.5806 185.258 91.5V131.5C188.582 129.581 190.639 126.929 190.639 124V84Z" fill="#4A4A4A"/>
<circle cx="40" cy="40" r="40" transform="matrix(0.866025 0.5 -0.866025 0.5 83.6841 23)" fill="#FDEFBD"/>
<path d="M34.6938 63C34.6938 70.8105 40.1772 77.8816 49.0426 83V88C40.1772 82.8816 34.6938 75.8105 34.6938 68V63Z" fill="#FCE593"/>
<path d="M49.043 83C68.1747 94.0457 99.1933 94.0457 118.325 83V88C99.1933 99.0457 68.1747 99.0457 49.043 88V83Z" fill="#E1C665"/>
<path d="M132.673 63C132.673 70.8105 127.19 77.8816 118.325 83V88C127.19 82.8816 132.673 75.8105 132.673 68V63Z" fill="#E1C665"/>
<circle cx="8" cy="8" r="8" transform="matrix(-0.866025 0.5 -0.866025 -0.5 165.674 18)" fill="#FCE593"/>
<path d="M161.616 17.9998C161.616 19.5619 160.519 20.9761 158.746 21.9997L158.746 142C160.519 140.976 161.616 139.562 161.616 138L161.616 17.9998Z" fill="#FDEFBD"/>
<path d="M144.89 22C148.716 24.2091 154.92 24.2091 158.746 22L158.746 142C154.92 144.209 148.716 144.209 144.89 142L144.89 22Z" fill="#E1C665"/>
<path d="M142.02 18C142.02 19.5621 143.117 20.9763 144.89 22L144.89 142C143.117 140.976 142.02 139.562 142.02 138L142.02 18Z" fill="#E1C665"/>
<path d="M28.1569 110.56C27.5472 110.208 27.0207 109.771 26.5773 109.248C26.1431 108.731 25.806 108.152 25.5658 107.512C25.3348 106.867 25.2194 106.197 25.2194 105.504V100.224C25.2194 99.52 25.3348 98.984 25.5658 98.616C25.806 98.2533 26.1431 98.064 26.5773 98.048C27.0207 98.0373 27.5472 98.208 28.1569 98.56C28.7666 98.912 29.2885 99.3467 29.7227 99.864C30.1661 100.387 30.5033 100.965 30.7342 101.6C30.9744 102.24 31.0945 102.907 31.0945 103.6V108.896C31.0945 109.589 30.9744 110.123 30.7342 110.496C30.5033 110.864 30.1661 111.053 29.7227 111.064C29.2885 111.08 28.7666 110.912 28.1569 110.56ZM28.1569 109.264C28.7019 109.579 29.1176 109.643 29.404 109.456C29.6996 109.264 29.8474 108.837 29.8474 108.176V102.896C29.8474 102.235 29.6996 101.643 29.404 101.12C29.1176 100.592 28.7019 100.171 28.1569 99.856C27.6211 99.5467 27.2054 99.488 26.9098 99.68C26.6142 99.8613 26.4664 100.283 26.4664 100.944V106.224C26.4664 106.885 26.6142 107.483 26.9098 108.016C27.2054 108.539 27.6211 108.955 28.1569 109.264ZM33.5832 113.533V104.733L34.8303 105.453V107.133L35.0936 107.285L34.8303 107.469C34.8303 106.776 35.0104 106.346 35.3707 106.181C35.731 106.005 36.2298 106.101 36.8672 106.469C37.6339 106.912 38.2436 107.536 38.6962 108.341C39.1489 109.146 39.3752 110.018 39.3752 110.957V116.877L38.1281 116.157V110.397C38.1281 109.768 37.9803 109.202 37.6847 108.701C37.3984 108.194 37.0058 107.797 36.5069 107.509C35.9896 107.21 35.5785 107.154 35.2737 107.341C34.9781 107.533 34.8303 107.97 34.8303 108.653V114.253L33.5832 113.533ZM45.813 120.594C45.3696 120.338 44.9816 120.012 44.6491 119.618C44.3165 119.223 44.0579 118.786 43.8731 118.306C43.6884 117.826 43.596 117.335 43.596 116.834V108.946L41.0326 107.466V106.154L44.8431 108.354V117.554C44.8431 117.916 44.9308 118.255 45.1063 118.57C45.2819 118.874 45.5174 119.111 45.813 119.282L48.2379 120.682V121.994L45.813 120.594ZM50.1031 123.071V121.759L52.8051 123.319V117.143L50.4495 115.783V114.471L54.0522 116.551V124.039L56.6156 125.519V126.831L50.1031 123.071ZM53.2901 114.527C52.9852 114.351 52.745 114.121 52.5695 113.839C52.394 113.556 52.3063 113.26 52.3063 112.951C52.3063 112.631 52.394 112.431 52.5695 112.351C52.745 112.26 52.9852 112.303 53.2901 112.479C53.5949 112.655 53.8351 112.889 54.0106 113.183C54.1861 113.465 54.2739 113.767 54.2739 114.087C54.2739 114.396 54.1861 114.591 54.0106 114.671C53.8351 114.751 53.5949 114.703 53.2901 114.527ZM58.5085 127.924V119.123L59.7556 119.843V121.523L60.0189 121.675L59.7556 121.859C59.7556 121.166 59.9357 120.737 60.296 120.571C60.6563 120.395 61.1551 120.492 61.7925 120.86C62.5592 121.302 63.1689 121.926 63.6215 122.732C64.0742 123.537 64.3005 124.409 64.3005 125.348V131.268L63.0534 130.548V124.787C63.0534 124.158 62.9056 123.593 62.61 123.091C62.3236 122.585 61.931 122.187 61.4322 121.899C60.9149 121.601 60.5038 121.545 60.199 121.731C59.9034 121.923 59.7556 122.361 59.7556 123.043V128.644L58.5085 127.924ZM69.6991 134.544C69.0986 134.198 68.5721 133.755 68.1194 133.216C67.676 132.683 67.3296 132.094 67.0802 131.448C66.84 130.798 66.7199 130.136 66.7199 129.464V127.064C66.7199 126.382 66.84 125.859 67.0802 125.496C67.3296 125.139 67.676 124.95 68.1194 124.928C68.5721 124.912 69.0986 125.078 69.6991 125.424C70.2995 125.771 70.8214 126.211 71.2649 126.744C71.7175 127.283 72.0639 127.872 72.3041 128.512C72.5535 129.158 72.6782 129.822 72.6782 130.504V132.056L67.9393 129.32V130.168C67.9393 130.862 68.0917 131.483 68.3966 132.032C68.7014 132.571 69.1356 133.003 69.6991 133.328C70.1794 133.606 70.5674 133.734 70.863 133.712C71.1586 133.68 71.3388 133.486 71.4034 133.128L72.6505 133.848C72.5674 134.536 72.2533 134.942 71.7083 135.064C71.1725 135.182 70.5027 135.008 69.6991 134.544ZM71.4588 130.392V129.8C71.4588 129.107 71.3064 128.486 71.0016 127.936C70.706 127.392 70.2718 126.955 69.6991 126.624C69.1356 126.299 68.7014 126.235 68.3966 126.432C68.0917 126.63 67.9393 127.075 67.9393 127.768V128.232L71.5558 130.32L71.4588 130.392Z" fill="black"/>
<circle cx="5" cy="5" r="5" transform="matrix(0.866025 0.5 -0.866025 0.5 106.062 106)" fill="#BDEBFD"/>
<path d="M99.9385 111C99.9385 111.976 100.624 112.86 101.732 113.5V117.5C100.624 116.86 99.9385 115.976 99.9385 115V111Z" fill="#93DEFC"/>
<path d="M101.732 113.5C104.123 114.881 108.001 114.881 110.392 113.5V117.5C108.001 118.881 104.123 118.881 101.732 117.5V113.5Z" fill="#65BEE1"/>
<path d="M112.186 111C112.186 111.976 111.5 112.86 110.392 113.5V117.5C111.5 116.86 112.186 115.976 112.186 115V111Z" fill="#65BEE1"/>
<circle cx="5" cy="5" r="5" transform="matrix(0.866025 0.5 -0.866025 0.5 92.062 98)" fill="#808080"/>
<path d="M85.9385 103C85.9385 103.976 86.6239 104.86 87.7321 105.5V109.5C86.6239 108.86 85.9385 107.976 85.9385 107V103Z" fill="#595959"/>
<path d="M87.7319 105.5C90.1234 106.881 94.0007 106.881 96.3922 105.5V109.5C94.0007 110.881 90.1234 110.881 87.7319 109.5V105.5Z" fill="#333333"/>
<path d="M98.1857 103C98.1857 103.976 97.5003 104.86 96.3921 105.5V109.5C97.5003 108.86 98.1857 107.976 98.1857 107V103Z" fill="#333333"/>
</svg>
