<svg width="191" height="190" viewBox="0 0 191 190" fill="none" xmlns="http://www.w3.org/2000/svg">
<path d="M64.014 21.5C71.1884 17.3579 82.8204 17.3579 89.9948 21.5L185.258 76.5C192.432 80.6421 192.432 87.3579 185.258 91.5L127.234 125C120.059 129.142 108.427 129.142 101.253 125L5.99031 70C-1.18408 65.8579 -1.18408 59.1421 5.99031 55L64.014 21.5Z" fill="#64A479"/>
<rect width="110" height="40" transform="matrix(0.866025 0.5 0 1 5.99023 70)" fill="#528A65"/>
<rect width="67" height="40" transform="matrix(0.866025 -0.5 0 1 127.234 125)" fill="#4A4A4A"/>
<path d="M0.609375 62.5C0.609375 65.4289 2.66564 68.0806 5.99017 70V110C2.66564 108.081 0.609375 105.429 0.609375 102.5V62.5Z" fill="#528A65"/>
<path d="M101.253 125C108.427 129.142 120.059 129.142 127.234 125V165C120.059 169.142 108.427 169.142 101.253 165V125Z" fill="#4A4A4A"/>
<path d="M190.639 84C190.639 86.9289 188.582 89.5806 185.258 91.5V131.5C188.582 129.581 190.639 126.929 190.639 124V84Z" fill="#4A4A4A"/>
<circle cx="40" cy="40" r="40" transform="matrix(0.866025 0.5 -0.866025 0.5 83.6841 23)" fill="#FDEFBD"/>
<path d="M34.6938 63C34.6938 70.8105 40.1772 77.8816 49.0426 83V88C40.1772 82.8816 34.6938 75.8105 34.6938 68V63Z" fill="#FCE593"/>
<path d="M49.043 83C68.1747 94.0457 99.1933 94.0457 118.325 83V88C99.1933 99.0457 68.1747 99.0457 49.043 88V83Z" fill="#E1C665"/>
<path d="M132.673 63C132.673 70.8105 127.19 77.8816 118.325 83V88C127.19 82.8816 132.673 75.8105 132.673 68V63Z" fill="#E1C665"/>
<path d="M13.5992 101.506C12.9341 101.122 12.3614 100.663 11.881 100.13C11.4099 99.6021 11.045 99.0234 10.7864 98.3941C10.5277 97.7647 10.3938 97.1167 10.3845 96.4501L11.6316 97.1701C11.6316 97.7567 11.8025 98.3194 12.1443 98.8581C12.4953 99.4021 12.9803 99.8527 13.5992 100.21C14.1812 100.546 14.6338 100.642 14.9572 100.498C15.2897 100.359 15.456 99.9967 15.456 99.4101C15.456 98.9407 15.3451 98.4661 15.1234 97.9861C14.911 97.5114 14.6015 97.0874 14.195 96.7141L12.8233 95.4261C12.1304 94.7807 11.5947 94.0607 11.2159 93.2661C10.8464 92.4767 10.6617 91.6927 10.6617 90.9141C10.6617 90.2847 10.7818 89.8101 11.0219 89.4901C11.2713 89.1647 11.6178 89.0021 12.0612 89.0021C12.5046 88.9914 13.0265 89.1594 13.6269 89.5061C14.5137 90.0181 15.225 90.7167 15.7608 91.6021C16.2966 92.4767 16.5691 93.3914 16.5784 94.3461L15.3313 93.6261C15.3313 93.0501 15.1789 92.5141 14.874 92.0181C14.5784 91.5167 14.1581 91.1087 13.6131 90.7941C13.0773 90.4847 12.657 90.3914 12.3521 90.5141C12.0565 90.6421 11.9087 90.9727 11.9087 91.5061C11.9087 91.9861 12.0196 92.4661 12.2413 92.9461C12.463 93.4261 12.7817 93.8607 13.1974 94.2501L14.583 95.5621C15.2574 96.1967 15.7793 96.9141 16.1488 97.7141C16.5183 98.5141 16.7031 99.3087 16.7031 100.098C16.7031 100.738 16.5737 101.223 16.3151 101.554C16.0564 101.885 15.6915 102.047 15.2204 102.042C14.7585 102.042 14.2181 101.863 13.5992 101.506ZM21.8384 106.263C20.9608 105.756 20.2587 105.052 19.7322 104.151C19.2057 103.239 18.9424 102.266 18.9424 101.231V95.6309L20.1895 96.3509V101.951C20.1895 102.612 20.3373 103.215 20.6329 103.759C20.9285 104.292 21.3303 104.706 21.8384 104.999C22.3557 105.298 22.7621 105.351 23.0577 105.159C23.3626 104.962 23.515 104.532 23.515 103.871V98.2709L24.7621 98.9909V104.591C24.7621 105.626 24.4942 106.292 23.9584 106.591C23.4226 106.879 22.7159 106.77 21.8384 106.263ZM30.6041 111.324C29.9759 110.961 29.4725 110.478 29.0937 109.876C28.715 109.262 28.5256 108.62 28.5256 107.948L28.775 108.428L28.5256 108.284V109.964L27.2785 109.244V97.5638L28.5256 98.2838V100.844L28.4979 102.828L28.775 102.988L28.5256 103.18C28.5256 102.518 28.715 102.1 29.0937 101.924C29.4817 101.753 29.9851 101.846 30.6041 102.204C31.3708 102.646 31.9851 103.294 32.447 104.148C32.9088 105.001 33.1398 105.934 33.1398 106.948V109.524C33.1398 110.526 32.9088 111.188 32.447 111.508C31.9851 111.828 31.3708 111.766 30.6041 111.324ZM30.1884 109.836C30.7149 110.14 31.1306 110.198 31.4354 110.012C31.7403 109.825 31.8927 109.39 31.8927 108.708V106.308C31.8927 105.625 31.7403 105.014 31.4354 104.476C31.1306 103.937 30.7149 103.516 30.1884 103.212C29.6803 102.918 29.2738 102.87 28.969 103.068C28.6734 103.27 28.5256 103.702 28.5256 104.364V106.764C28.5256 107.425 28.6734 108.028 28.969 108.572C29.2738 109.121 29.6803 109.542 30.1884 109.836ZM35.2267 113.833V105.033L36.3213 105.665V106.721L36.5708 106.865L36.3768 107.137C36.3768 106.646 36.4876 106.321 36.7093 106.161C36.9403 106.006 37.2497 106.041 37.6377 106.265C38.0626 106.51 38.3906 106.881 38.6215 107.377C38.8525 107.873 38.9679 108.451 38.9679 109.113L38.5938 108.033L39.1758 108.369L38.9125 108.601C38.9125 108.11 39.028 107.787 39.2589 107.633C39.4991 107.483 39.8132 107.521 40.2011 107.745C40.6815 108.022 41.051 108.443 41.3097 109.009C41.5775 109.579 41.7115 110.206 41.7115 110.889V117.577L40.5614 116.913V110.209C40.5614 109.846 40.4921 109.523 40.3536 109.241C40.2242 108.963 40.0302 108.75 39.7716 108.601C39.5222 108.457 39.3236 108.443 39.1758 108.561C39.0372 108.673 38.9679 108.91 38.9679 109.273V115.993L37.9703 115.417V108.713C37.9703 108.339 37.8964 108.014 37.7486 107.737C37.61 107.454 37.4114 107.238 37.1527 107.089C36.8941 106.939 36.7001 106.929 36.5708 107.057C36.4414 107.174 36.3768 107.414 36.3768 107.777V114.497L35.2267 113.833ZM43.7984 118.782V117.47L46.5004 119.03V112.854L44.1448 111.494V110.182L47.7475 112.262V119.75L50.3109 121.23V122.542L43.7984 118.782ZM46.9854 110.238C46.6805 110.062 46.4403 109.832 46.2648 109.55C46.0893 109.267 46.0016 108.971 46.0016 108.662C46.0016 108.342 46.0893 108.142 46.2648 108.062C46.4403 107.971 46.6805 108.014 46.9854 108.19C47.2902 108.366 47.5304 108.6 47.7059 108.894C47.8814 109.176 47.9692 109.478 47.9692 109.798C47.9692 110.107 47.8814 110.302 47.7059 110.382C47.5304 110.462 47.2902 110.414 46.9854 110.238ZM55.9173 125.778C55.2615 125.4 54.7488 124.901 54.3793 124.282C54.019 123.669 53.8389 122.994 53.8389 122.258V117.09L51.6911 115.85V114.538L53.8389 115.778V113.298L55.086 114.018V116.498L58.1344 118.258V119.57L55.086 117.81V122.978C55.086 123.65 55.3631 124.146 55.9173 124.466L57.9958 125.666V126.978L55.9173 125.778ZM64.2258 130.575C63.5699 130.197 63.0572 129.698 62.6877 129.079C62.3274 128.466 62.1473 127.791 62.1473 127.055V121.887L59.9996 120.647V119.335L62.1473 120.575V118.095L63.3944 118.815V121.295L66.4428 123.055V124.367L63.3944 122.607V127.775C63.3944 128.447 63.6715 128.943 64.2258 129.263L66.3042 130.463V131.775L64.2258 130.575ZM71.7028 135.052C71.1024 134.706 70.5758 134.263 70.1232 133.724C69.6798 133.191 69.3334 132.602 69.084 131.956C68.8438 131.306 68.7237 130.644 68.7237 129.972V127.572C68.7237 126.89 68.8438 126.367 69.084 126.004C69.3334 125.647 69.6798 125.458 70.1232 125.436C70.5758 125.42 71.1024 125.586 71.7028 125.932C72.3033 126.279 72.8252 126.719 73.2686 127.252C73.7212 127.791 74.0676 128.38 74.3078 129.02C74.5572 129.666 74.6819 130.33 74.6819 131.012V132.564L69.943 129.828V130.676C69.943 131.37 70.0955 131.991 70.4003 132.54C70.7052 133.079 71.1393 133.511 71.7028 133.836C72.1832 134.114 72.5711 134.242 72.8667 134.22C73.1624 134.188 73.3425 133.994 73.4071 133.636L74.6542 134.356C74.5711 135.044 74.257 135.45 73.712 135.572C73.1762 135.69 72.5065 135.516 71.7028 135.052ZM73.4626 130.9V130.308C73.4626 129.615 73.3102 128.994 73.0053 128.444C72.7097 127.9 72.2755 127.463 71.7028 127.132C71.1393 126.807 70.7052 126.743 70.4003 126.94C70.0955 127.138 69.943 127.583 69.943 128.276V128.74L73.5596 130.828L73.4626 130.9ZM79.5678 139.593C78.8104 139.156 78.1961 138.508 77.7249 137.649C77.2631 136.796 77.0321 135.868 77.0321 134.865V132.289C77.0321 131.276 77.2631 130.609 77.7249 130.289C78.1868 129.969 78.8011 130.03 79.5678 130.473C80.196 130.836 80.6994 131.324 81.0782 131.937C81.4569 132.55 81.6463 133.188 81.6463 133.849L81.3969 133.369L81.674 133.529L81.6463 131.513V128.953L82.8934 129.673V141.353L81.6463 140.633V138.953L81.3969 138.809L81.6463 138.617C81.6463 139.289 81.4569 139.713 81.0782 139.889C80.6994 140.054 80.196 139.956 79.5678 139.593ZM79.9835 138.585C80.5008 138.884 80.9073 138.932 81.2029 138.729C81.4985 138.526 81.6463 138.094 81.6463 137.433V135.033C81.6463 134.372 81.4985 133.769 81.2029 133.225C80.9073 132.681 80.5008 132.26 79.9835 131.961C79.457 131.657 79.0413 131.598 78.7365 131.785C78.4316 131.972 78.2792 132.406 78.2792 133.089V135.489C78.2792 136.172 78.4316 136.782 78.7365 137.321C79.0413 137.86 79.457 138.281 79.9835 138.585Z" fill="black"/>
<circle cx="5" cy="5" r="5" transform="matrix(0.866025 0.5 -0.866025 0.5 106.062 106)" fill="#CBFDBD"/>
<path d="M99.9385 111C99.9385 111.976 100.624 112.86 101.732 113.5V117.5C100.624 116.86 99.9385 115.976 99.9385 115V111Z" fill="#AAFC93"/>
<path d="M101.732 113.5C104.123 114.881 108.001 114.881 110.392 113.5V117.5C108.001 118.881 104.123 118.881 101.732 117.5V113.5Z" fill="#80E165"/>
<path d="M112.186 111C112.186 111.976 111.5 112.86 110.392 113.5V117.5C111.5 116.86 112.186 115.976 112.186 115V111Z" fill="#80E165"/>
<circle cx="5" cy="5" r="5" transform="matrix(0.866025 0.5 -0.866025 0.5 92.062 98)" fill="#808080"/>
<path d="M85.9385 103C85.9385 103.976 86.6239 104.86 87.7321 105.5V109.5C86.6239 108.86 85.9385 107.976 85.9385 107V103Z" fill="#595959"/>
<path d="M87.7319 105.5C90.1234 106.881 94.0007 106.881 96.3922 105.5V109.5C94.0007 110.881 90.1234 110.881 87.7319 109.5V105.5Z" fill="#333333"/>
<path d="M98.1857 103C98.1857 103.976 97.5003 104.86 96.3921 105.5V109.5C97.5003 108.86 98.1857 107.976 98.1857 107V103Z" fill="#333333"/>
<circle cx="8" cy="8" r="8" transform="matrix(0.077363 -0.997003 0.824748 0.5655 54.979 180.173)" fill="#FDEFBD"/>
<path d="M66.4238 185.56C67.833 184.886 68.6356 183.286 68.794 181.245L177.047 129.465C176.889 131.506 176.086 133.106 174.677 133.78L66.4238 185.56Z" fill="#FCE593"/>
<path d="M68.7939 181.245C69.1358 176.84 66.4588 171.244 62.8149 168.745L171.068 116.965C174.712 119.463 177.389 125.06 177.047 129.465L68.7939 181.245Z" fill="#E1C665"/>
<path d="M57.9677 167.882C59.3769 167.208 61.1259 167.587 62.8145 168.745L171.068 116.965C169.379 115.807 167.63 115.428 166.221 116.102L57.9677 167.882Z" fill="#E1C665"/>
</svg>
