<svg width="191" height="190" viewBox="0 0 191 190" fill="none" xmlns="http://www.w3.org/2000/svg">
<path d="M64.014 21.5C71.1884 17.3579 82.8204 17.3579 89.9948 21.5L185.258 76.5C192.432 80.6421 192.432 87.3579 185.258 91.5L127.234 125C120.059 129.142 108.427 129.142 101.253 125L5.99031 70C-1.18408 65.8579 -1.18408 59.1421 5.99031 55L64.014 21.5Z" fill="#CC7150"/>
<rect width="110" height="40" transform="matrix(0.866025 0.5 0 1 5.99023 70)" fill="#BA5937"/>
<rect width="67" height="40" transform="matrix(0.866025 -0.5 0 1 127.234 125)" fill="#6B493D"/>
<path d="M0.609375 62.5C0.609375 65.4289 2.66564 68.0806 5.99017 70V110C2.66564 108.081 0.609375 105.429 0.609375 102.5V62.5Z" fill="#BA5937"/>
<path d="M101.253 125C108.427 129.142 120.059 129.142 127.234 125V165C120.059 169.142 108.427 169.142 101.253 165V125Z" fill="#6B493D"/>
<path d="M190.639 84C190.639 86.9289 188.582 89.5806 185.258 91.5V131.5C188.582 129.581 190.639 126.929 190.639 124V84Z" fill="#6B493D"/>
<circle cx="40" cy="40" r="40" transform="matrix(0.866025 0.5 -0.866025 0.5 83.6841 23)" fill="#5278CA"/>
<path d="M34.6938 63C34.6938 70.8105 40.1772 77.8816 49.0426 83V88C40.1772 82.8816 34.6938 75.8105 34.6938 68V63Z" fill="#3962B8"/>
<path d="M49.043 83C68.1747 94.0457 99.1933 94.0457 118.325 83V88C99.1933 99.0457 68.1747 99.0457 49.043 88V83Z" fill="#3E4C69"/>
<path d="M132.673 63C132.673 70.8105 127.19 77.8816 118.325 83V88C127.19 82.8816 132.673 75.8105 132.673 68V63Z" fill="#3E4C69"/>
<path d="M21.6792 106.083L20.5152 93.7308L21.7069 94.4188L22.469 103.499C22.4875 103.744 22.506 104 22.5244 104.267C22.5429 104.523 22.5568 104.765 22.566 104.995C22.5845 105.229 22.5937 105.421 22.5937 105.571C22.6122 105.432 22.626 105.253 22.6353 105.035C22.6538 104.821 22.6722 104.597 22.6907 104.363C22.7184 104.123 22.7461 103.893 22.7738 103.675L23.7161 95.5788L25.0047 96.3228L25.8638 105.459C25.8915 105.709 25.9146 105.968 25.9331 106.235C25.9608 106.496 25.9839 106.744 26.0024 106.979C26.0301 107.219 26.0486 107.416 26.0578 107.571C26.067 107.427 26.0763 107.245 26.0855 107.027C26.104 106.813 26.1225 106.589 26.1409 106.355C26.1687 106.115 26.1918 105.883 26.2102 105.659L27 97.4748L28.1363 98.1308L26.9446 109.123L25.3788 108.219L24.5197 98.9228C24.5013 98.6668 24.4782 98.4134 24.4505 98.1628C24.432 97.9174 24.4135 97.6881 24.395 97.4748C24.3766 97.2614 24.3627 97.0881 24.3535 96.9548C24.3442 97.0774 24.3258 97.2321 24.298 97.4188C24.2796 97.6108 24.2611 97.8188 24.2426 98.0428C24.2241 98.2668 24.2011 98.4934 24.1733 98.7228L23.245 106.987L21.6792 106.083ZM31.9691 112.184C31.1654 111.72 30.5326 111.12 30.0708 110.384C29.6089 109.637 29.3779 108.858 29.3779 108.048C29.3779 107.226 29.6089 106.714 30.0708 106.512C30.5326 106.309 31.1562 106.434 31.9414 106.888L34.297 108.248V107.368C34.297 106.824 34.1538 106.325 33.8674 105.872C33.5903 105.413 33.1931 105.034 32.6758 104.736C32.2231 104.474 31.8444 104.368 31.5395 104.416C31.2347 104.453 31.0592 104.645 31.013 104.992L29.7659 104.272C29.8491 103.562 30.1585 103.138 30.6943 103C31.2301 102.861 31.8998 103.024 32.7035 103.488C33.581 103.994 34.2739 104.656 34.7819 105.472C35.29 106.288 35.544 107.144 35.544 108.04V114.088L34.3247 113.384V111.704L34.1168 111.584L34.3247 111.464C34.3247 112.104 34.1076 112.485 33.6734 112.608C33.2485 112.736 32.6804 112.594 31.9691 112.184ZM32.2739 111.224C32.8651 111.565 33.3501 111.674 33.7288 111.552C34.1076 111.429 34.297 111.101 34.297 110.568V109.32L31.9691 107.976C31.5534 107.736 31.2255 107.68 30.9853 107.808C30.7451 107.936 30.625 108.229 30.625 108.688C30.625 109.178 30.7682 109.65 31.0546 110.104C31.3502 110.552 31.7566 110.925 32.2739 111.224ZM37.9635 115.485V114.173L40.6655 115.733V109.557L38.3099 108.197V106.885L41.9126 108.965V116.453L44.476 117.933V119.245L37.9635 115.485ZM41.1505 106.941C40.8456 106.765 40.6054 106.535 40.4299 106.253C40.2544 105.97 40.1667 105.674 40.1667 105.365C40.1667 105.045 40.2544 104.845 40.4299 104.765C40.6054 104.674 40.8456 104.717 41.1505 104.893C41.4553 105.069 41.6955 105.303 41.871 105.597C42.0465 105.879 42.1343 106.181 42.1343 106.501C42.1343 106.81 42.0465 107.005 41.871 107.085C41.6955 107.165 41.4553 107.117 41.1505 106.941ZM50.0824 122.481C49.4266 122.103 48.9139 121.604 48.5444 120.985C48.1841 120.372 48.004 119.697 48.004 118.961V113.793L45.8562 112.553V111.241L48.004 112.481V110.001L49.2511 110.721V113.201L52.2995 114.961V116.273L49.2511 114.513V119.681C49.2511 120.353 49.5282 120.849 50.0824 121.169L52.1609 122.369V123.681L50.0824 122.481ZM54.5804 125.078V123.766L57.2824 125.326V119.15L54.9268 117.79V116.478L58.5294 118.558V126.046L61.0929 127.526V128.838L54.5804 125.078ZM57.7673 116.534C57.4625 116.358 57.2223 116.129 57.0468 115.846C56.8713 115.564 56.7835 115.268 56.7835 114.958C56.7835 114.638 56.8713 114.438 57.0468 114.358C57.2223 114.268 57.4625 114.31 57.7673 114.486C58.0722 114.662 58.3123 114.897 58.4879 115.19C58.6634 115.473 58.7511 115.774 58.7511 116.094C58.7511 116.404 58.6634 116.598 58.4879 116.678C58.3123 116.758 58.0722 116.71 57.7673 116.534ZM62.9858 129.931V121.131L64.2329 121.851V123.531L64.4961 123.683L64.2329 123.867C64.2329 123.174 64.413 122.744 64.7733 122.579C65.1335 122.403 65.6324 122.499 66.2698 122.867C67.0365 123.31 67.6462 123.934 68.0988 124.739C68.5514 125.544 68.7778 126.416 68.7778 127.355V133.275L67.5307 132.555V126.795C67.5307 126.166 67.3829 125.6 67.0873 125.099C66.8009 124.592 66.4083 124.195 65.9095 123.907C65.3922 123.608 64.9811 123.552 64.6763 123.739C64.3807 123.931 64.2329 124.368 64.2329 125.051V130.651L62.9858 129.931ZM72.2503 138.16V136.848L74.6752 138.248C75.0632 138.472 75.3449 138.533 75.5204 138.432C75.7052 138.336 75.7975 138.075 75.7975 137.648V136.528L75.8253 134.944L75.5758 134.8L75.8114 134.696C75.8114 135.336 75.6266 135.736 75.2571 135.896C74.8876 136.056 74.3934 135.957 73.7745 135.6C72.9893 135.147 72.3704 134.496 71.9177 133.648C71.4651 132.789 71.2388 131.859 71.2388 130.856V129C71.2388 127.997 71.4651 127.333 71.9177 127.008C72.3704 126.683 72.9893 126.747 73.7745 127.2C74.3934 127.557 74.8876 128.029 75.2571 128.616C75.6266 129.203 75.8114 129.816 75.8114 130.456L75.5758 130.08L75.8114 130.216V128.536L77.0446 129.248V138.368C77.0446 139.157 76.8322 139.659 76.4072 139.872C75.9915 140.091 75.4096 139.984 74.6613 139.552L72.2503 138.16ZM74.1486 134.568C74.6659 134.867 75.0724 134.915 75.368 134.712C75.6636 134.509 75.8114 134.077 75.8114 133.416V131.736C75.8114 131.075 75.6636 130.472 75.368 129.928C75.0724 129.384 74.6659 128.963 74.1486 128.664C73.6221 128.36 73.211 128.304 72.9154 128.496C72.629 128.693 72.4859 129.133 72.4859 129.816V131.496C72.4859 132.179 72.629 132.784 72.9154 133.312C73.211 133.845 73.6221 134.264 74.1486 134.568Z" fill="black"/>
<circle cx="5" cy="5" r="5" transform="matrix(0.866025 0.5 -0.866025 0.5 106.062 106)" fill="url(#paint0_linear_174_480)"/>
<path d="M99.9385 111C99.9385 111.976 100.624 112.86 101.732 113.5V117.5C100.624 116.86 99.9385 115.976 99.9385 115V111Z" fill="url(#paint1_linear_174_480)"/>
<path d="M101.732 113.5C104.123 114.881 108.001 114.881 110.392 113.5V117.5C108.001 118.881 104.123 118.881 101.732 117.5V113.5Z" fill="url(#paint2_linear_174_480)"/>
<path d="M112.186 111C112.186 111.976 111.5 112.86 110.392 113.5V117.5C111.5 116.86 112.186 115.976 112.186 115V111Z" fill="url(#paint3_linear_174_480)"/>
<circle cx="5" cy="5" r="5" transform="matrix(0.866025 0.5 -0.866025 0.5 92.062 98)" fill="#808080"/>
<path d="M85.9385 103C85.9385 103.976 86.6239 104.86 87.7321 105.5V109.5C86.6239 108.86 85.9385 107.976 85.9385 107V103Z" fill="#595959"/>
<path d="M87.7319 105.5C90.1234 106.881 94.0007 106.881 96.3922 105.5V109.5C94.0007 110.881 90.1234 110.881 87.7319 109.5V105.5Z" fill="#333333"/>
<path d="M98.1857 103C98.1857 103.976 97.5003 104.86 96.3921 105.5V109.5C97.5003 108.86 98.1857 107.976 98.1857 107V103Z" fill="#333333"/>
<circle cx="8" cy="8" r="8" transform="matrix(0.866025 0.5 -0.866025 0.5 170.856 -2)" fill="#5278CA"/>
<path d="M161.059 6C161.059 7.5621 162.155 8.97631 163.928 10V130C162.155 128.976 161.059 127.562 161.059 126V6Z" fill="#3962B8"/>
<path d="M163.928 10C167.755 12.2091 173.958 12.2091 177.785 10V130C173.958 132.209 167.755 132.209 163.928 130V10Z" fill="#3E4C69"/>
<path d="M180.654 6C180.654 7.5621 179.558 8.97631 177.785 10V130C179.558 128.976 180.654 127.562 180.654 126V6Z" fill="#3E4C69"/>
<defs>
<linearGradient id="paint0_linear_174_480" x1="9.99611" y1="10.0025" x2="-0.524858" y2="0.581294" gradientUnits="userSpaceOnUse">
<stop stop-color="#FFFAD5"/>
<stop offset="1" stop-color="#FDCFBD"/>
</linearGradient>
<linearGradient id="paint1_linear_174_480" x1="99.9385" y1="111" x2="102.021" y2="111.094" gradientUnits="userSpaceOnUse">
<stop stop-color="#FC93AE"/>
<stop offset="1" stop-color="#FCB193"/>
</linearGradient>
<linearGradient id="paint2_linear_174_480" x1="101.732" y1="113.495" x2="108.887" y2="111.881" gradientUnits="userSpaceOnUse">
<stop stop-color="#D7A244"/>
<stop offset="1" stop-color="#E18865"/>
</linearGradient>
<linearGradient id="paint3_linear_174_480" x1="110.392" y1="110.994" x2="111.947" y2="110.938" gradientUnits="userSpaceOnUse">
<stop stop-color="#D7A244"/>
<stop offset="1" stop-color="#E18865"/>
</linearGradient>
</defs>
</svg>
