<?xml version="1.0" encoding="UTF-8" standalone="no"?><!DOCTYPE svg PUBLIC "-//W3C//DTD SVG 1.1//EN" "http://www.w3.org/Graphics/SVG/1.1/DTD/svg11.dtd"><svg width="100%" height="100%" viewBox="0 0 2134 2134" version="1.1" xmlns="http://www.w3.org/2000/svg" xmlns:xlink="http://www.w3.org/1999/xlink" xml:space="preserve" xmlns:serif="http://www.serif.com/" style="fill-rule:evenodd;clip-rule:evenodd;stroke-linejoin:round;stroke-miterlimit:2;"><g id="Layer-1" serif:id="Layer 1"><path d="M1071.33,1905.45l125.517,0c-52.077,42.609 -94.935,90.87 -127.954,143.541l0,84.342l276.138,0l-0,-84.342l-138.019,0c31.628,-46.016 75.823,-91.834 138.019,-143.541l-0,-84.342l-273.701,0l-0,84.342Zm555.919,227.883l-257.078,0l0,-312.225l257.078,0l-0,84.342l-135.835,0l0,36.085l127.727,0l0,68.935l-127.727,0l0,38.521l135.835,0l-0,84.342Zm150.84,-172.738l0,-55.145l42.172,0c17.843,0 27.98,9.731 27.98,27.574c0,17.838 -10.137,27.571 -27.98,27.571l-42.172,0Zm197.072,172.738c-17.52,-47.742 -42.022,-98.681 -74.984,-155.782c38.547,-11.307 61.6,-35.609 61.6,-72.911c0,-56.768 -52.308,-83.532 -135.027,-83.532l-170.304,0l-0,312.225l121.643,0l0,-129.152c27.028,45.52 46.938,88.476 60.015,129.152l137.057,0Zm-933.031,0l-257.078,0l0,-312.225l257.078,0l-0,84.342l-135.838,0l0,36.085l127.73,0l0,68.935l-127.73,0l0,38.521l135.838,0l-0,84.342Zm-286.272,0l-257.08,0l0,-312.225l257.08,0l0,84.342l-135.84,0l0,36.085l127.73,0l0,68.935l-127.73,0l0,38.521l135.84,0l0,84.342Zm-476.037,-84.342l28.384,0c30.411,0 46.631,-20.271 46.631,-71.772c0,-51.495 -16.22,-71.769 -46.631,-71.769l-28.384,0l0,143.541Zm-121.646,-227.883l156.517,0c96.91,0 165.438,64.475 165.438,156.111c0,91.64 -68.528,156.114 -165.438,156.114l-156.517,0l-0,-312.225Z" style="fill-rule:nonzero;"/><path d="M1794.63,495.057c-0,-106.202 21.239,-192.316 47.447,-192.316c26.206,-0 47.447,86.114 47.447,192.316c0,106.199 -21.241,192.319 -47.447,192.319c-26.208,0 -47.447,-86.12 -47.447,-192.319m-1550.53,0c0,-106.202 21.239,-192.316 47.45,-192.316c26.209,-0 47.447,86.114 47.447,192.316c0,106.199 -21.238,192.319 -47.447,192.319c-26.211,0 -47.45,-86.12 -47.45,-192.319m1380.02,-244.02c15.227,-88.239 37.568,-143.721 62.313,-143.827l0.049,-0c46.145,0.157 83.546,192.582 83.546,430.156c0,237.576 -37.456,430.155 -83.649,430.155c-18.94,0 -36.414,-32.698 -50.482,-87.494c-22.234,200.59 -68.373,338.477 -121.786,338.477c-41.33,-0 -78.42,-82.831 -103.32,-213.461c-17.001,248.438 -59.791,424.7 -109.806,424.7c-31.387,-0 -60.003,-69.845 -81.19,-183.576c-25.473,234.765 -84.331,399.261 -152.962,399.261c-68.635,-0 -127.598,-164.445 -152.965,-399.261c-21.033,113.731 -49.646,183.576 -81.191,183.576c-50.015,-0 -92.701,-176.262 -109.806,-424.7c-24.903,130.63 -61.889,213.461 -103.322,213.461c-53.359,-0 -99.552,-137.838 -121.784,-338.477c-13.967,54.954 -31.544,87.494 -50.482,87.494c-46.193,0 -83.649,-192.579 -83.649,-430.155c0,-237.574 37.456,-430.156 83.649,-430.156c24.798,-0 46.978,55.643 62.357,143.827c24.639,-152.149 64.661,-251.037 109.909,-251.037c53.728,0 100.288,139.854 122.311,342.928c21.553,-147.803 54.249,-242.028 90.869,-242.028c51.318,0 94.946,185.323 111.112,443.831c30.393,-132.539 74.391,-215.687 123.098,-215.687c48.698,-0 92.698,83.203 123.037,215.687c16.218,-258.508 59.792,-443.831 111.118,-443.831c36.56,0 69.207,94.225 90.866,242.028c21.975,-203.074 68.531,-342.928 122.257,-342.928c45.096,0 85.266,98.942 109.903,251.037" style="fill:#a238ff;fill-rule:nonzero;"/></g></svg>