<svg width="320" height="320" viewBox="0 0 320 320" fill="none" xmlns="http://www.w3.org/2000/svg">
<g clip-path="url(#clip0_102_154)">
<rect width="320" height="320" fill="black"/>
<rect y="27.5" width="12.5" height="12.5" fill="#5E6B7A"/>
<rect x="40" y="27.5" width="12.5" height="12.5" fill="#5E6B7A"/>
<rect x="40" y="67.5" width="12.5" height="12.5" fill="#5E6B7A"/>
<rect y="67.5" width="12.5" height="12.5" fill="#5E6B7A"/>
<rect x="27.5" y="27.5" width="12.5" height="12.5" fill="#5E6B7A"/>
<rect x="67.5" y="27.5" width="12.5" height="12.5" fill="#5E6B7A"/>
<rect x="67.5" y="67.5" width="12.5" height="12.5" fill="#5E6B7A"/>
<rect x="27.5" y="67.5" width="12.5" height="12.5" fill="#5E6B7A"/>
<rect x="13.75" y="13.75" width="12.5" height="12.5" fill="#5E6B7A"/>
<rect x="53.75" y="13.75" width="12.5" height="12.5" fill="#5E6B7A"/>
<rect x="53.75" y="53.75" width="12.5" height="12.5" fill="#5E6B7A"/>
<rect x="13.75" y="53.75" width="12.5" height="12.5" fill="#5E6B7A"/>
<rect x="27.5" width="12.5" height="12.5" fill="#5E6B7A"/>
<rect x="67.5" width="12.5" height="12.5" fill="#5E6B7A"/>
<rect x="67.5" y="40" width="12.5" height="12.5" fill="#5E6B7A"/>
<rect x="27.5" y="40" width="12.5" height="12.5" fill="#5E6B7A"/>
<rect width="12.5" height="12.5" fill="#5E6B7A"/>
<rect x="40" width="12.5" height="12.5" fill="#5E6B7A"/>
<rect x="40" y="40" width="12.5" height="12.5" fill="#5E6B7A"/>
<rect y="40" width="12.5" height="12.5" fill="#5E6B7A"/>
<rect x="80" y="27.5" width="12.5" height="12.5" fill="#5E6B7A"/>
<rect x="120" y="27.5" width="12.5" height="12.5" fill="#5E6B7A"/>
<rect x="120" y="67.5" width="12.5" height="12.5" fill="#5E6B7A"/>
<rect x="80" y="67.5" width="12.5" height="12.5" fill="#5E6B7A"/>
<rect x="107.5" y="27.5" width="12.5" height="12.5" fill="#5E6B7A"/>
<rect x="147.5" y="27.5" width="12.5" height="12.5" fill="#5E6B7A"/>
<rect x="147.5" y="67.5" width="12.5" height="12.5" fill="#5E6B7A"/>
<rect x="107.5" y="67.5" width="12.5" height="12.5" fill="#5E6B7A"/>
<rect x="93.75" y="13.75" width="12.5" height="12.5" fill="#5E6B7A"/>
<rect x="133.75" y="13.75" width="12.5" height="12.5" fill="#5E6B7A"/>
<rect x="133.75" y="53.75" width="12.5" height="12.5" fill="#5E6B7A"/>
<rect x="93.75" y="53.75" width="12.5" height="12.5" fill="#5E6B7A"/>
<rect x="107.5" width="12.5" height="12.5" fill="#5E6B7A"/>
<rect x="147.5" width="12.5" height="12.5" fill="#5E6B7A"/>
<rect x="147.5" y="40" width="12.5" height="12.5" fill="#5E6B7A"/>
<rect x="107.5" y="40" width="12.5" height="12.5" fill="#5E6B7A"/>
<rect x="80" width="12.5" height="12.5" fill="#5E6B7A"/>
<rect x="120" width="12.5" height="12.5" fill="#5E6B7A"/>
<rect x="120" y="40" width="12.5" height="12.5" fill="#5E6B7A"/>
<rect x="80" y="40" width="12.5" height="12.5" fill="#5E6B7A"/>
<rect x="80" y="107.5" width="12.5" height="12.5" fill="#5E6B7A"/>
<rect x="120" y="107.5" width="12.5" height="12.5" fill="#5E6B7A"/>
<rect x="120" y="147.5" width="12.5" height="12.5" fill="#5E6B7A"/>
<rect x="80" y="147.5" width="12.5" height="12.5" fill="#5E6B7A"/>
<rect x="107.5" y="107.5" width="12.5" height="12.5" fill="#5E6B7A"/>
<rect x="147.5" y="107.5" width="12.5" height="12.5" fill="#5E6B7A"/>
<rect x="147.5" y="147.5" width="12.5" height="12.5" fill="#5E6B7A"/>
<rect x="107.5" y="147.5" width="12.5" height="12.5" fill="#5E6B7A"/>
<rect x="93.75" y="93.75" width="12.5" height="12.5" fill="#5E6B7A"/>
<rect x="133.75" y="93.75" width="12.5" height="12.5" fill="#5E6B7A"/>
<rect x="133.75" y="133.75" width="12.5" height="12.5" fill="#5E6B7A"/>
<rect x="93.75" y="133.75" width="12.5" height="12.5" fill="#5E6B7A"/>
<rect x="107.5" y="80" width="12.5" height="12.5" fill="#5E6B7A"/>
<rect x="147.5" y="80" width="12.5" height="12.5" fill="#5E6B7A"/>
<rect x="147.5" y="120" width="12.5" height="12.5" fill="#5E6B7A"/>
<rect x="107.5" y="120" width="12.5" height="12.5" fill="#5E6B7A"/>
<rect x="80" y="80" width="12.5" height="12.5" fill="#5E6B7A"/>
<rect x="120" y="80" width="12.5" height="12.5" fill="#5E6B7A"/>
<rect x="120" y="120" width="12.5" height="12.5" fill="#5E6B7A"/>
<rect x="80" y="120" width="12.5" height="12.5" fill="#5E6B7A"/>
<rect y="107.5" width="12.5" height="12.5" fill="#5E6B7A"/>
<rect x="40" y="107.5" width="12.5" height="12.5" fill="#5E6B7A"/>
<rect x="40" y="147.5" width="12.5" height="12.5" fill="#5E6B7A"/>
<rect y="147.5" width="12.5" height="12.5" fill="#5E6B7A"/>
<rect x="27.5" y="107.5" width="12.5" height="12.5" fill="#5E6B7A"/>
<rect x="67.5" y="107.5" width="12.5" height="12.5" fill="#5E6B7A"/>
<rect x="67.5" y="147.5" width="12.5" height="12.5" fill="#5E6B7A"/>
<rect x="27.5" y="147.5" width="12.5" height="12.5" fill="#5E6B7A"/>
<rect x="13.75" y="93.75" width="12.5" height="12.5" fill="#5E6B7A"/>
<rect x="53.75" y="93.75" width="12.5" height="12.5" fill="#5E6B7A"/>
<rect x="53.75" y="133.75" width="12.5" height="12.5" fill="#5E6B7A"/>
<rect x="13.75" y="133.75" width="12.5" height="12.5" fill="#5E6B7A"/>
<rect x="27.5" y="80" width="12.5" height="12.5" fill="#5E6B7A"/>
<rect x="67.5" y="80" width="12.5" height="12.5" fill="#5E6B7A"/>
<rect x="67.5" y="120" width="12.5" height="12.5" fill="#5E6B7A"/>
<rect x="27.5" y="120" width="12.5" height="12.5" fill="#5E6B7A"/>
<rect y="80" width="12.5" height="12.5" fill="#5E6B7A"/>
<rect x="40" y="80" width="12.5" height="12.5" fill="#5E6B7A"/>
<rect x="40" y="120" width="12.5" height="12.5" fill="#5E6B7A"/>
<rect y="120" width="12.5" height="12.5" fill="#5E6B7A"/>
<rect x="160" y="27.5" width="12.5" height="12.5" fill="#5E6B7A"/>
<rect x="200" y="27.5" width="12.5" height="12.5" fill="#5E6B7A"/>
<rect x="200" y="67.5" width="12.5" height="12.5" fill="#5E6B7A"/>
<rect x="160" y="67.5" width="12.5" height="12.5" fill="#5E6B7A"/>
<rect x="187.5" y="27.5" width="12.5" height="12.5" fill="#5E6B7A"/>
<rect x="227.5" y="27.5" width="12.5" height="12.5" fill="#5E6B7A"/>
<rect x="227.5" y="67.5" width="12.5" height="12.5" fill="#5E6B7A"/>
<rect x="187.5" y="67.5" width="12.5" height="12.5" fill="#5E6B7A"/>
<rect x="173.75" y="13.75" width="12.5" height="12.5" fill="#5E6B7A"/>
<rect x="213.75" y="13.75" width="12.5" height="12.5" fill="#5E6B7A"/>
<rect x="213.75" y="53.75" width="12.5" height="12.5" fill="#5E6B7A"/>
<rect x="173.75" y="53.75" width="12.5" height="12.5" fill="#5E6B7A"/>
<rect x="187.5" width="12.5" height="12.5" fill="#5E6B7A"/>
<rect x="227.5" width="12.5" height="12.5" fill="#5E6B7A"/>
<rect x="227.5" y="40" width="12.5" height="12.5" fill="#5E6B7A"/>
<rect x="187.5" y="40" width="12.5" height="12.5" fill="#5E6B7A"/>
<rect x="160" width="12.5" height="12.5" fill="#5E6B7A"/>
<rect x="200" width="12.5" height="12.5" fill="#5E6B7A"/>
<rect x="200" y="40" width="12.5" height="12.5" fill="#5E6B7A"/>
<rect x="160" y="40" width="12.5" height="12.5" fill="#5E6B7A"/>
<rect x="240" y="27.5" width="12.5" height="12.5" fill="#5E6B7A"/>
<rect x="280" y="27.5" width="12.5" height="12.5" fill="#5E6B7A"/>
<rect x="280" y="67.5" width="12.5" height="12.5" fill="#5E6B7A"/>
<rect x="240" y="67.5" width="12.5" height="12.5" fill="#5E6B7A"/>
<rect x="267.5" y="27.5" width="12.5" height="12.5" fill="#5E6B7A"/>
<rect x="307.5" y="27.5" width="12.5" height="12.5" fill="#5E6B7A"/>
<rect x="307.5" y="67.5" width="12.5" height="12.5" fill="#5E6B7A"/>
<rect x="267.5" y="67.5" width="12.5" height="12.5" fill="#5E6B7A"/>
<rect x="253.75" y="13.75" width="12.5" height="12.5" fill="#5E6B7A"/>
<rect x="293.75" y="13.75" width="12.5" height="12.5" fill="#5E6B7A"/>
<rect x="293.75" y="53.75" width="12.5" height="12.5" fill="#5E6B7A"/>
<rect x="253.75" y="53.75" width="12.5" height="12.5" fill="#5E6B7A"/>
<rect x="267.5" width="12.5" height="12.5" fill="#5E6B7A"/>
<rect x="307.5" width="12.5" height="12.5" fill="#5E6B7A"/>
<rect x="307.5" y="40" width="12.5" height="12.5" fill="#5E6B7A"/>
<rect x="267.5" y="40" width="12.5" height="12.5" fill="#5E6B7A"/>
<rect x="240" width="12.5" height="12.5" fill="#5E6B7A"/>
<rect x="280" width="12.5" height="12.5" fill="#5E6B7A"/>
<rect x="280" y="40" width="12.5" height="12.5" fill="#5E6B7A"/>
<rect x="240" y="40" width="12.5" height="12.5" fill="#5E6B7A"/>
<rect x="240" y="107.5" width="12.5" height="12.5" fill="#5E6B7A"/>
<rect x="280" y="107.5" width="12.5" height="12.5" fill="#5E6B7A"/>
<rect x="280" y="147.5" width="12.5" height="12.5" fill="#5E6B7A"/>
<rect x="240" y="147.5" width="12.5" height="12.5" fill="#5E6B7A"/>
<rect x="267.5" y="107.5" width="12.5" height="12.5" fill="#5E6B7A"/>
<rect x="307.5" y="107.5" width="12.5" height="12.5" fill="#5E6B7A"/>
<rect x="307.5" y="147.5" width="12.5" height="12.5" fill="#5E6B7A"/>
<rect x="267.5" y="147.5" width="12.5" height="12.5" fill="#5E6B7A"/>
<rect x="253.75" y="93.75" width="12.5" height="12.5" fill="#5E6B7A"/>
<rect x="293.75" y="93.75" width="12.5" height="12.5" fill="#5E6B7A"/>
<rect x="293.75" y="133.75" width="12.5" height="12.5" fill="#5E6B7A"/>
<rect x="253.75" y="133.75" width="12.5" height="12.5" fill="#5E6B7A"/>
<rect x="267.5" y="80" width="12.5" height="12.5" fill="#5E6B7A"/>
<rect x="307.5" y="80" width="12.5" height="12.5" fill="#5E6B7A"/>
<rect x="307.5" y="120" width="12.5" height="12.5" fill="#5E6B7A"/>
<rect x="267.5" y="120" width="12.5" height="12.5" fill="#5E6B7A"/>
<rect x="240" y="80" width="12.5" height="12.5" fill="#5E6B7A"/>
<rect x="280" y="80" width="12.5" height="12.5" fill="#5E6B7A"/>
<rect x="280" y="120" width="12.5" height="12.5" fill="#5E6B7A"/>
<rect x="240" y="120" width="12.5" height="12.5" fill="#5E6B7A"/>
<rect x="160" y="107.5" width="12.5" height="12.5" fill="#5E6B7A"/>
<rect x="200" y="107.5" width="12.5" height="12.5" fill="#5E6B7A"/>
<rect x="200" y="147.5" width="12.5" height="12.5" fill="#5E6B7A"/>
<rect x="160" y="147.5" width="12.5" height="12.5" fill="#5E6B7A"/>
<rect x="187.5" y="107.5" width="12.5" height="12.5" fill="#5E6B7A"/>
<rect x="227.5" y="107.5" width="12.5" height="12.5" fill="#5E6B7A"/>
<rect x="227.5" y="147.5" width="12.5" height="12.5" fill="#5E6B7A"/>
<rect x="187.5" y="147.5" width="12.5" height="12.5" fill="#5E6B7A"/>
<rect x="173.75" y="93.75" width="12.5" height="12.5" fill="#5E6B7A"/>
<rect x="213.75" y="93.75" width="12.5" height="12.5" fill="#5E6B7A"/>
<rect x="213.75" y="133.75" width="12.5" height="12.5" fill="#5E6B7A"/>
<rect x="173.75" y="133.75" width="12.5" height="12.5" fill="#5E6B7A"/>
<rect x="187.5" y="80" width="12.5" height="12.5" fill="#5E6B7A"/>
<rect x="227.5" y="80" width="12.5" height="12.5" fill="#5E6B7A"/>
<rect x="227.5" y="120" width="12.5" height="12.5" fill="#5E6B7A"/>
<rect x="187.5" y="120" width="12.5" height="12.5" fill="#5E6B7A"/>
<rect x="160" y="80" width="12.5" height="12.5" fill="#5E6B7A"/>
<rect x="200" y="80" width="12.5" height="12.5" fill="#5E6B7A"/>
<rect x="200" y="120" width="12.5" height="12.5" fill="#5E6B7A"/>
<rect x="160" y="120" width="12.5" height="12.5" fill="#5E6B7A"/>
<rect x="160" y="187.5" width="12.5" height="12.5" fill="#5E6B7A"/>
<rect x="200" y="187.5" width="12.5" height="12.5" fill="#5E6B7A"/>
<rect x="200" y="227.5" width="12.5" height="12.5" fill="#5E6B7A"/>
<rect x="160" y="227.5" width="12.5" height="12.5" fill="#5E6B7A"/>
<rect x="187.5" y="187.5" width="12.5" height="12.5" fill="#5E6B7A"/>
<rect x="227.5" y="187.5" width="12.5" height="12.5" fill="#5E6B7A"/>
<rect x="227.5" y="227.5" width="12.5" height="12.5" fill="#5E6B7A"/>
<rect x="187.5" y="227.5" width="12.5" height="12.5" fill="#5E6B7A"/>
<rect x="173.75" y="173.75" width="12.5" height="12.5" fill="#5E6B7A"/>
<rect x="213.75" y="173.75" width="12.5" height="12.5" fill="#5E6B7A"/>
<rect x="213.75" y="213.75" width="12.5" height="12.5" fill="#5E6B7A"/>
<rect x="173.75" y="213.75" width="12.5" height="12.5" fill="#5E6B7A"/>
<rect x="187.5" y="160" width="12.5" height="12.5" fill="#5E6B7A"/>
<rect x="227.5" y="160" width="12.5" height="12.5" fill="#5E6B7A"/>
<rect x="227.5" y="200" width="12.5" height="12.5" fill="#5E6B7A"/>
<rect x="187.5" y="200" width="12.5" height="12.5" fill="#5E6B7A"/>
<rect x="160" y="160" width="12.5" height="12.5" fill="#5E6B7A"/>
<rect x="200" y="160" width="12.5" height="12.5" fill="#5E6B7A"/>
<rect x="200" y="200" width="12.5" height="12.5" fill="#5E6B7A"/>
<rect x="160" y="200" width="12.5" height="12.5" fill="#5E6B7A"/>
<rect x="240" y="187.5" width="12.5" height="12.5" fill="#5E6B7A"/>
<rect x="280" y="187.5" width="12.5" height="12.5" fill="#5E6B7A"/>
<rect x="280" y="227.5" width="12.5" height="12.5" fill="#5E6B7A"/>
<rect x="240" y="227.5" width="12.5" height="12.5" fill="#5E6B7A"/>
<rect x="267.5" y="187.5" width="12.5" height="12.5" fill="#5E6B7A"/>
<rect x="307.5" y="187.5" width="12.5" height="12.5" fill="#5E6B7A"/>
<rect x="307.5" y="227.5" width="12.5" height="12.5" fill="#5E6B7A"/>
<rect x="267.5" y="227.5" width="12.5" height="12.5" fill="#5E6B7A"/>
<rect x="253.75" y="173.75" width="12.5" height="12.5" fill="#5E6B7A"/>
<rect x="293.75" y="173.75" width="12.5" height="12.5" fill="#5E6B7A"/>
<rect x="293.75" y="213.75" width="12.5" height="12.5" fill="#5E6B7A"/>
<rect x="253.75" y="213.75" width="12.5" height="12.5" fill="#5E6B7A"/>
<rect x="267.5" y="160" width="12.5" height="12.5" fill="#5E6B7A"/>
<rect x="307.5" y="160" width="12.5" height="12.5" fill="#5E6B7A"/>
<rect x="307.5" y="200" width="12.5" height="12.5" fill="#5E6B7A"/>
<rect x="267.5" y="200" width="12.5" height="12.5" fill="#5E6B7A"/>
<rect x="240" y="160" width="12.5" height="12.5" fill="#5E6B7A"/>
<rect x="280" y="160" width="12.5" height="12.5" fill="#5E6B7A"/>
<rect x="280" y="200" width="12.5" height="12.5" fill="#5E6B7A"/>
<rect x="240" y="200" width="12.5" height="12.5" fill="#5E6B7A"/>
<rect x="240" y="267.5" width="12.5" height="12.5" fill="#5E6B7A"/>
<rect x="280" y="267.5" width="12.5" height="12.5" fill="#5E6B7A"/>
<rect x="280" y="307.5" width="12.5" height="12.5" fill="#5E6B7A"/>
<rect x="240" y="307.5" width="12.5" height="12.5" fill="#5E6B7A"/>
<rect x="267.5" y="267.5" width="12.5" height="12.5" fill="#5E6B7A"/>
<rect x="307.5" y="267.5" width="12.5" height="12.5" fill="#5E6B7A"/>
<rect x="307.5" y="307.5" width="12.5" height="12.5" fill="#5E6B7A"/>
<rect x="267.5" y="307.5" width="12.5" height="12.5" fill="#5E6B7A"/>
<rect x="253.75" y="253.75" width="12.5" height="12.5" fill="#5E6B7A"/>
<rect x="293.75" y="253.75" width="12.5" height="12.5" fill="#5E6B7A"/>
<rect x="293.75" y="293.75" width="12.5" height="12.5" fill="#5E6B7A"/>
<rect x="253.75" y="293.75" width="12.5" height="12.5" fill="#5E6B7A"/>
<rect x="267.5" y="240" width="12.5" height="12.5" fill="#5E6B7A"/>
<rect x="307.5" y="240" width="12.5" height="12.5" fill="#5E6B7A"/>
<rect x="307.5" y="280" width="12.5" height="12.5" fill="#5E6B7A"/>
<rect x="267.5" y="280" width="12.5" height="12.5" fill="#5E6B7A"/>
<rect x="240" y="240" width="12.5" height="12.5" fill="#5E6B7A"/>
<rect x="280" y="240" width="12.5" height="12.5" fill="#5E6B7A"/>
<rect x="280" y="280" width="12.5" height="12.5" fill="#5E6B7A"/>
<rect x="240" y="280" width="12.5" height="12.5" fill="#5E6B7A"/>
<rect x="160" y="267.5" width="12.5" height="12.5" fill="#5E6B7A"/>
<rect x="200" y="267.5" width="12.5" height="12.5" fill="#5E6B7A"/>
<rect x="200" y="307.5" width="12.5" height="12.5" fill="#5E6B7A"/>
<rect x="160" y="307.5" width="12.5" height="12.5" fill="#5E6B7A"/>
<rect x="187.5" y="267.5" width="12.5" height="12.5" fill="#5E6B7A"/>
<rect x="227.5" y="267.5" width="12.5" height="12.5" fill="#5E6B7A"/>
<rect x="227.5" y="307.5" width="12.5" height="12.5" fill="#5E6B7A"/>
<rect x="187.5" y="307.5" width="12.5" height="12.5" fill="#5E6B7A"/>
<rect x="173.75" y="253.75" width="12.5" height="12.5" fill="#5E6B7A"/>
<rect x="213.75" y="253.75" width="12.5" height="12.5" fill="#5E6B7A"/>
<rect x="213.75" y="293.75" width="12.5" height="12.5" fill="#5E6B7A"/>
<rect x="173.75" y="293.75" width="12.5" height="12.5" fill="#5E6B7A"/>
<rect x="187.5" y="240" width="12.5" height="12.5" fill="#5E6B7A"/>
<rect x="227.5" y="240" width="12.5" height="12.5" fill="#5E6B7A"/>
<rect x="227.5" y="280" width="12.5" height="12.5" fill="#5E6B7A"/>
<rect x="187.5" y="280" width="12.5" height="12.5" fill="#5E6B7A"/>
<rect x="160" y="240" width="12.5" height="12.5" fill="#5E6B7A"/>
<rect x="200" y="240" width="12.5" height="12.5" fill="#5E6B7A"/>
<rect x="200" y="280" width="12.5" height="12.5" fill="#5E6B7A"/>
<rect x="160" y="280" width="12.5" height="12.5" fill="#5E6B7A"/>
<rect y="187.5" width="12.5" height="12.5" fill="#5E6B7A"/>
<rect x="40" y="187.5" width="12.5" height="12.5" fill="#5E6B7A"/>
<rect x="40" y="227.5" width="12.5" height="12.5" fill="#5E6B7A"/>
<rect y="227.5" width="12.5" height="12.5" fill="#5E6B7A"/>
<rect x="27.5" y="187.5" width="12.5" height="12.5" fill="#5E6B7A"/>
<rect x="67.5" y="187.5" width="12.5" height="12.5" fill="#5E6B7A"/>
<rect x="67.5" y="227.5" width="12.5" height="12.5" fill="#5E6B7A"/>
<rect x="27.5" y="227.5" width="12.5" height="12.5" fill="#5E6B7A"/>
<rect x="13.75" y="173.75" width="12.5" height="12.5" fill="#5E6B7A"/>
<rect x="53.75" y="173.75" width="12.5" height="12.5" fill="#5E6B7A"/>
<rect x="53.75" y="213.75" width="12.5" height="12.5" fill="#5E6B7A"/>
<rect x="13.75" y="213.75" width="12.5" height="12.5" fill="#5E6B7A"/>
<rect x="27.5" y="160" width="12.5" height="12.5" fill="#5E6B7A"/>
<rect x="67.5" y="160" width="12.5" height="12.5" fill="#5E6B7A"/>
<rect x="67.5" y="200" width="12.5" height="12.5" fill="#5E6B7A"/>
<rect x="27.5" y="200" width="12.5" height="12.5" fill="#5E6B7A"/>
<rect y="160" width="12.5" height="12.5" fill="#5E6B7A"/>
<rect x="40" y="160" width="12.5" height="12.5" fill="#5E6B7A"/>
<rect x="40" y="200" width="12.5" height="12.5" fill="#5E6B7A"/>
<rect y="200" width="12.5" height="12.5" fill="#5E6B7A"/>
<rect x="80" y="187.5" width="12.5" height="12.5" fill="#5E6B7A"/>
<rect x="120" y="187.5" width="12.5" height="12.5" fill="#5E6B7A"/>
<rect x="120" y="227.5" width="12.5" height="12.5" fill="#5E6B7A"/>
<rect x="80" y="227.5" width="12.5" height="12.5" fill="#5E6B7A"/>
<rect x="107.5" y="187.5" width="12.5" height="12.5" fill="#5E6B7A"/>
<rect x="147.5" y="187.5" width="12.5" height="12.5" fill="#5E6B7A"/>
<rect x="147.5" y="227.5" width="12.5" height="12.5" fill="#5E6B7A"/>
<rect x="107.5" y="227.5" width="12.5" height="12.5" fill="#5E6B7A"/>
<rect x="93.75" y="173.75" width="12.5" height="12.5" fill="#5E6B7A"/>
<rect x="133.75" y="173.75" width="12.5" height="12.5" fill="#5E6B7A"/>
<rect x="133.75" y="213.75" width="12.5" height="12.5" fill="#5E6B7A"/>
<rect x="93.75" y="213.75" width="12.5" height="12.5" fill="#5E6B7A"/>
<rect x="107.5" y="160" width="12.5" height="12.5" fill="#5E6B7A"/>
<rect x="147.5" y="160" width="12.5" height="12.5" fill="#5E6B7A"/>
<rect x="147.5" y="200" width="12.5" height="12.5" fill="#5E6B7A"/>
<rect x="107.5" y="200" width="12.5" height="12.5" fill="#5E6B7A"/>
<rect x="80" y="160" width="12.5" height="12.5" fill="#5E6B7A"/>
<rect x="120" y="160" width="12.5" height="12.5" fill="#5E6B7A"/>
<rect x="120" y="200" width="12.5" height="12.5" fill="#5E6B7A"/>
<rect x="80" y="200" width="12.5" height="12.5" fill="#5E6B7A"/>
<rect x="80" y="267.5" width="12.5" height="12.5" fill="#5E6B7A"/>
<rect x="120" y="267.5" width="12.5" height="12.5" fill="#5E6B7A"/>
<rect x="120" y="307.5" width="12.5" height="12.5" fill="#5E6B7A"/>
<rect x="80" y="307.5" width="12.5" height="12.5" fill="#5E6B7A"/>
<rect x="107.5" y="267.5" width="12.5" height="12.5" fill="#5E6B7A"/>
<rect x="147.5" y="267.5" width="12.5" height="12.5" fill="#5E6B7A"/>
<rect x="147.5" y="307.5" width="12.5" height="12.5" fill="#5E6B7A"/>
<rect x="107.5" y="307.5" width="12.5" height="12.5" fill="#5E6B7A"/>
<rect x="93.75" y="253.75" width="12.5" height="12.5" fill="#5E6B7A"/>
<rect x="133.75" y="253.75" width="12.5" height="12.5" fill="#5E6B7A"/>
<rect x="133.75" y="293.75" width="12.5" height="12.5" fill="#5E6B7A"/>
<rect x="93.75" y="293.75" width="12.5" height="12.5" fill="#5E6B7A"/>
<rect x="107.5" y="240" width="12.5" height="12.5" fill="#5E6B7A"/>
<rect x="147.5" y="240" width="12.5" height="12.5" fill="#5E6B7A"/>
<rect x="147.5" y="280" width="12.5" height="12.5" fill="#5E6B7A"/>
<rect x="107.5" y="280" width="12.5" height="12.5" fill="#5E6B7A"/>
<rect x="80" y="240" width="12.5" height="12.5" fill="#5E6B7A"/>
<rect x="120" y="240" width="12.5" height="12.5" fill="#5E6B7A"/>
<rect x="120" y="280" width="12.5" height="12.5" fill="#5E6B7A"/>
<rect x="80" y="280" width="12.5" height="12.5" fill="#5E6B7A"/>
<rect y="267.5" width="12.5" height="12.5" fill="#5E6B7A"/>
<rect x="40" y="267.5" width="12.5" height="12.5" fill="#5E6B7A"/>
<rect x="40" y="307.5" width="12.5" height="12.5" fill="#5E6B7A"/>
<rect y="307.5" width="12.5" height="12.5" fill="#5E6B7A"/>
<rect x="27.5" y="267.5" width="12.5" height="12.5" fill="#5E6B7A"/>
<rect x="67.5" y="267.5" width="12.5" height="12.5" fill="#5E6B7A"/>
<rect x="67.5" y="307.5" width="12.5" height="12.5" fill="#5E6B7A"/>
<rect x="27.5" y="307.5" width="12.5" height="12.5" fill="#5E6B7A"/>
<rect x="13.75" y="253.75" width="12.5" height="12.5" fill="#5E6B7A"/>
<rect x="53.75" y="253.75" width="12.5" height="12.5" fill="#5E6B7A"/>
<rect x="53.75" y="293.75" width="12.5" height="12.5" fill="#5E6B7A"/>
<rect x="13.75" y="293.75" width="12.5" height="12.5" fill="#5E6B7A"/>
<rect x="27.5" y="240" width="12.5" height="12.5" fill="#5E6B7A"/>
<rect x="67.5" y="240" width="12.5" height="12.5" fill="#5E6B7A"/>
<rect x="67.5" y="280" width="12.5" height="12.5" fill="#5E6B7A"/>
<rect x="27.5" y="280" width="12.5" height="12.5" fill="#5E6B7A"/>
<rect y="240" width="12.5" height="12.5" fill="#5E6B7A"/>
<rect x="40" y="240" width="12.5" height="12.5" fill="#5E6B7A"/>
<rect x="40" y="280" width="12.5" height="12.5" fill="#5E6B7A"/>
<rect y="280" width="12.5" height="12.5" fill="#5E6B7A"/>
<rect x="107.5" y="92.5001" width="25" height="105" transform="rotate(-90 107.5 92.5001)" fill="#6B6B6B"/>
<rect x="27.5" y="172.5" width="25" height="105" transform="rotate(-90 27.5 172.5)" fill="white"/>
<rect x="107.5" y="252.5" width="25" height="80" transform="rotate(-90 107.5 252.5)" fill="#6B6B6B"/>
<rect x="187.5" y="67.5" width="25" height="80" fill="#6B6B6B"/>
<rect x="107.5" y="147.5" width="25" height="105" fill="#6B6B6B"/>
<rect x="27.5" y="67.5" width="25" height="105" fill="white"/>
<rect x="107.5" y="67.5" width="25" height="105" fill="#6B6B6B"/>
<rect x="267.5" y="67.5" width="25" height="105" fill="white"/>
<rect x="267.5" y="147.5" width="25" height="105" fill="white"/>
<rect x="107.5" y="67.5" width="25" height="105" fill="#D9D9D9" fill-opacity="0.5"/>
<rect x="187.5" y="172.5" width="25" height="105" transform="rotate(-90 187.5 172.5)" fill="white"/>
<rect x="187.5" y="147.5" width="25" height="105" fill="#6B6B6B"/>
<rect x="187.5" y="67.5" width="25" height="105" fill="#D9D9D9" fill-opacity="0.5"/>
<rect x="107.5" y="147.07" width="25" height="105.43" fill="#D9D9D9" fill-opacity="0.5"/>
</g>
<defs>
<clipPath id="clip0_102_154">
<rect width="320" height="320" fill="white"/>
</clipPath>
</defs>
</svg>
